<svg xmlns="http://www.w3.org/2000/svg" viewBox="0 0 1254 1254" width="1254" height="1254" role="img" aria-label="Robotjakt"><rect width="1254" height="1254" fill="#1B222B"/><g transform="translate(0.000000,1254.000000) scale(0.100000,-0.100000)"><g fill="#FFFFFF"><path d="M5940 10929 c-766 -57 -1544 -321 -2160 -732 -996 -665 -1714 -1730
-1954 -2899 -62 -300 -87 -536 -93 -885 -9 -481 36 -868 153 -1312 287 -1094
983 -2054 1946 -2685 591 -387 1218 -621 1918 -717 224 -30 670 -37 910 -14
1365 129 2600 881 3387 2060 375 562 635 1265 723 1950 76 596 41 1215 -101
1780 -326 1296 -1211 2417 -2364 2993 -436 218 -958 376 -1440 436 -279 35
-651 45 -925 25z m800 -959 c956 -129 1806 -627 2387 -1397 149 -199 254 -368
362 -583 216 -434 336 -858 382 -1352 15 -168 6 -643 -15 -798 -102 -735 -352
-1335 -784 -1877 -118 -149 -401 -429 -555 -552 -519 -411 -1137 -675 -1780
-761 -279 -37 -665 -33 -961 10 -1079 157 -2045 809 -2615 1765 -195 328 -316
619 -405 973 -75 302 -104 507 -113 812 -17 616 111 1206 382 1755 297 601
715 1076 1280 1452 459 306 1039 512 1580 562 66 6 134 13 150 15 17 3 147 3
290 1 191 -3 301 -9 415 -25z M5699 7265 c-305 -58 -564 -254 -700 -530 -78
-160 -93 -228 -93 -435 -1 -152 2 -186 22 -258 49 -179 142 -333 281 -464 290
-273 701 -340 1060 -172 619 290 762 1099 281 1585 -123 124 -278 214 -445
259 -106 28 -301 35 -406 15z"/></g><g fill="#AA5910"><path d="M7336 9096 c-100 -37 -166 -134 -166 -241 0 -47 6 -74 28 -116 30
-60 63 -87 198 -164 250 -142 531 -382 720 -615 489 -602 690 -1370 559 -2135
-64 -374 -197 -705 -414 -1032 -238 -357 -550 -647 -915 -849 -125 -69 -174
-139 -175 -254 -2 -139 110 -249 255 -250 51 0 74 7 150 44 169 82 407 240
564 375 605 518 978 1218 1087 2036 24 184 24 600 0 785 -51 382 -159 731
-331 1065 -286 558 -731 1010 -1283 1302 -91 48 -114 56 -172 60 -42 2 -80 -2
-105 -11z M6715 8106 c-91 -43 -140 -122 -140 -226 1 -111 54 -189 169 -247
28 -14 89 -52 136 -84 386 -265 615 -656 662 -1129 28 -291 -46 -631 -194
-893 -138 -242 -354 -462 -576 -584 -100 -54 -129 -79 -161 -135 -75 -130 -30
-282 102 -348 118 -59 207 -35 438 117 713 472 1058 1352 859 2190 -134 565
-524 1065 -1027 1317 -80 40 -100 46 -155 46 -45 0 -77 -7 -113 -24z"/></g></g></svg>