<svg xmlns="http://www.w3.org/2000/svg" width="1371" height="765" viewBox="0 0 1371 765">
<g>

<path d="M 178.00 475.99 C163.02,475.25 157.27,474.13 149.44,470.43 C143.43,467.58 135.09,459.13 128.35,449.04 C125.94,445.44 122.69,440.70 121.11,438.50 C114.90,429.82 110.29,422.21 107.49,416.00 C104.79,410.02 104.56,408.59 104.57,398.00 C104.58,385.70 106.35,378.90 111.29,372.17 C112.50,370.51 115.75,365.95 118.50,362.03 C121.25,358.11 126.17,351.21 129.43,346.70 C136.64,336.75 145.15,320.23 146.95,312.71 C148.15,307.71 148.07,306.32 146.14,298.34 C142.59,283.70 143.63,275.86 149.47,273.19 C156.49,269.99 168.90,273.70 171.81,279.87 C173.04,282.46 174.96,284.17 178.84,286.10 C187.69,290.51 194.41,291.48 206.43,290.06 C212.13,289.38 220.78,288.95 225.65,289.11 C249.86,289.87 252.17,289.70 257.22,286.73 C259.81,285.20 263.32,281.94 265.02,279.48 C268.70,274.13 271.63,272.48 279.14,271.57 C285.45,270.80 291.13,272.50 292.82,275.67 C293.36,276.67 294.10,279.98 294.47,283.00 C295.09,288.05 294.89,288.88 292.04,293.15 C288.31,298.75 287.01,308.26 289.17,314.07 C291.53,320.42 304.24,340.89 310.72,348.80 C322.33,362.97 330.48,375.92 333.49,384.98 C336.42,393.80 333.98,415.11 329.24,422.06 C328.28,423.47 324.97,427.74 321.87,431.56 C318.77,435.38 315.10,440.78 313.70,443.56 C312.30,446.35 308.40,451.67 305.03,455.39 C290.36,471.58 286.84,473.09 257.00,476.02 C247.19,476.99 197.85,476.97 178.00,475.99 ZM 161.50 460.34 C165.79,461.68 174.26,461.87 221.50,461.70 C275.55,461.50 276.58,461.46 281.18,459.34 C288.15,456.11 294.31,449.90 297.61,442.75 L 300.50 436.50 L 300.50 404.50 C300.50,376.59 300.26,371.60 298.66,365.50 C294.40,349.35 282.91,331.45 271.69,323.50 C268.54,321.27 266.14,318.84 266.27,318.00 C266.40,317.17 269.42,311.45 273.00,305.27 C278.71,295.40 279.83,294.03 282.17,294.02 C283.64,294.01 286.23,292.83 287.92,291.41 C290.58,289.18 291.00,288.16 291.00,284.00 C291.00,279.84 290.58,278.82 287.92,276.59 C284.45,273.67 281.20,273.33 277.09,275.45 C273.33,277.40 271.60,281.84 272.43,287.41 C273.06,291.59 272.72,292.49 266.30,303.36 C261.37,311.71 259.09,314.74 258.00,314.33 L 257.87 314.28 C256.49,313.77 255.54,313.42 254.72,313.60 C252.86,314.03 251.62,317.19 247.53,327.47 C243.63,337.26 240.89,342.73 239.22,344.04 C236.97,345.82 235.10,346.00 219.42,346.00 C202.87,346.00 202.00,345.90 199.63,343.75 C197.42,341.75 191.73,329.47 187.31,317.17 C186.06,313.68 185.39,312.95 183.88,313.42 C182.84,313.74 181.10,314.28 180.00,314.62 C178.89,314.96 178.00,314.77 178.00,314.20 C178.00,313.63 175.82,309.64 173.15,305.33 C165.16,292.42 164.73,291.36 165.99,287.52 C167.95,281.58 163.09,274.00 157.32,274.00 C151.46,274.00 147.00,278.77 147.00,285.03 C147.00,288.87 151.73,294.00 155.27,294.00 C158.32,294.00 159.40,295.27 166.50,307.28 C169.68,312.65 172.67,317.30 173.15,317.59 C173.63,317.89 171.88,319.83 169.26,321.90 C156.44,332.07 147.62,344.38 142.33,359.50 L 139.53 367.50 L 139.19 400.82 C138.89,430.46 139.05,434.75 140.62,439.74 C143.80,449.86 151.19,457.15 161.50,460.34 ZM 206.00 340.50 C208.76,341.70 211.92,341.90 220.99,341.43 C227.32,341.11 233.09,340.34 233.82,339.74 C234.55,339.13 236.05,336.85 237.17,334.68 C238.28,332.50 239.95,329.90 240.89,328.89 C243.12,326.49 246.41,309.87 244.85,308.91 C238.95,305.26 207.87,304.20 197.75,307.30 C194.59,308.26 192.00,309.48 192.00,310.01 C192.00,310.53 193.12,313.94 194.50,317.60 C195.88,321.25 197.00,325.36 197.00,326.72 C197.00,330.99 202.11,338.82 206.00,340.50 ZM 306.53 416.75 C307.20,423.42 307.35,423.57 311.68,421.94 C316.73,420.04 320.83,415.13 322.10,409.45 C323.73,402.15 322.85,383.46 320.67,379.30 C318.56,375.25 312.99,370.96 309.50,370.70 L 306.83 370.50 L 306.36 390.50 C306.11,401.50 306.18,413.31 306.53,416.75 ZM 127.00 422.28 C131.21,423.86 132.00,423.17 132.14,417.75 C132.41,408.05 131.93,370.59 131.53,370.19 C130.50,369.17 124.02,372.39 121.16,375.33 C116.84,379.79 116.00,383.42 116.02,397.49 C116.04,407.03 116.43,410.34 117.91,413.60 C119.62,417.37 123.31,420.89 127.00,422.28 Z" fill="rgb(90,27,38)"/>
<path d="M 1312.64 728.74 C1309.69,721.00 1300.62,712.31 1293.75,710.63 C1292.24,710.26 1291.01,709.63 1291.02,709.23 C1291.03,708.83 1293.51,707.43 1296.53,706.12 C1303.57,703.07 1309.24,697.37 1312.10,690.46 C1313.35,687.46 1314.67,685.00 1315.05,685.00 C1315.42,685.00 1316.54,687.13 1317.54,689.74 C1319.90,695.92 1328.08,704.10 1334.26,706.46 C1336.87,707.46 1339.00,708.63 1339.00,709.06 C1339.00,709.50 1336.64,710.94 1333.75,712.27 C1326.14,715.77 1322.47,719.29 1318.90,726.56 C1317.15,730.10 1315.40,733.00 1315.00,733.00 C1314.60,733.00 1313.54,731.08 1312.64,728.74 ZM 1314.27 725.75 C1313.65,727.41 1313.70,727.41 1315.39,725.74 C1316.36,724.77 1317.55,724.22 1318.03,724.52 C1318.51,724.81 1319.38,724.17 1319.96,723.08 C1320.78,721.54 1320.65,720.80 1319.40,719.80 C1318.51,719.08 1316.54,717.38 1315.02,716.00 C1310.36,711.76 1306.16,709.00 1304.39,709.00 C1302.83,709.00 1302.84,708.84 1304.50,707.00 C1305.50,705.90 1306.02,705.00 1305.67,705.00 C1304.49,705.00 1301.10,708.34 1301.54,709.07 C1301.78,709.45 1301.20,710.39 1300.24,711.14 C1298.69,712.35 1298.64,712.32 1299.78,710.87 C1300.84,709.51 1300.77,709.13 1299.40,708.60 C1298.49,708.25 1297.09,708.51 1296.29,709.17 C1295.08,710.18 1295.42,710.67 1298.45,712.23 C1300.44,713.25 1302.49,713.81 1303.02,713.49 C1304.23,712.74 1314.16,721.93 1313.42,723.12 C1313.13,723.60 1313.34,724.00 1313.91,724.00 C1314.47,724.00 1314.64,724.79 1314.27,725.75 ZM 1319.38 722.45 C1318.72,724.18 1318.00,724.50 1318.00,723.06 C1318.00,722.54 1318.44,721.84 1318.99,721.51 C1319.56,721.16 1319.72,721.56 1319.38,722.45 Z" fill="rgb(78,82,92)"/>
<path d="M 1314.27 725.75 C1314.64,724.79 1314.47,724.00 1313.91,724.00 C1313.34,724.00 1313.13,723.60 1313.42,723.12 C1314.16,721.93 1304.23,712.74 1303.02,713.49 C1302.49,713.81 1300.44,713.25 1298.45,712.23 C1295.42,710.67 1295.08,710.18 1296.29,709.17 C1297.09,708.51 1298.49,708.25 1299.40,708.60 C1300.77,709.13 1300.84,709.51 1299.78,710.87 C1298.64,712.32 1298.69,712.35 1300.24,711.14 C1301.20,710.39 1301.78,709.45 1301.54,709.07 C1301.10,708.34 1304.49,705.00 1305.67,705.00 C1306.02,705.00 1305.50,705.90 1304.50,707.00 C1302.84,708.84 1302.83,709.00 1304.39,709.00 C1306.16,709.00 1310.36,711.76 1315.02,716.00 C1316.54,717.38 1318.51,719.08 1319.40,719.80 C1320.65,720.80 1320.78,721.54 1319.96,723.08 C1319.38,724.17 1318.51,724.81 1318.03,724.52 C1317.55,724.22 1316.36,724.77 1315.39,725.74 C1313.70,727.41 1313.65,727.41 1314.27,725.75 ZM 1319.38 722.45 C1319.72,721.56 1319.56,721.16 1318.99,721.51 C1318.44,721.84 1318.00,722.54 1318.00,723.06 C1318.00,724.50 1318.72,724.18 1319.38,722.45 Z" fill="rgb(195,197,202)"/>
<path d="M 206.00 340.50 C202.11,338.82 197.00,330.99 197.00,326.72 C197.00,325.36 195.88,321.25 194.50,317.60 C193.12,313.94 192.00,310.53 192.00,310.01 C192.00,309.48 194.59,308.26 197.75,307.30 C207.87,304.20 238.95,305.26 244.85,308.91 C246.41,309.87 243.12,326.49 240.89,328.89 C239.95,329.90 238.28,332.50 237.17,334.68 C236.05,336.85 234.55,339.13 233.82,339.74 C233.09,340.34 227.32,341.11 220.99,341.43 C211.92,341.90 208.76,341.70 206.00,340.50 ZM 306.53 416.75 C306.18,413.31 306.11,401.50 306.36,390.50 L 306.83 370.50 L 309.50 370.70 C312.99,370.96 318.56,375.25 320.67,379.30 C322.85,383.46 323.73,402.15 322.10,409.45 C320.83,415.13 316.73,420.04 311.68,421.94 C307.35,423.57 307.20,423.42 306.53,416.75 ZM 127.00 422.28 C123.31,420.89 119.62,417.37 117.91,413.60 C116.43,410.34 116.04,407.03 116.02,397.49 C116.00,383.42 116.84,379.79 121.16,375.33 C124.02,372.39 130.50,369.17 131.53,370.19 C131.93,370.59 132.41,408.05 132.14,417.75 C132.00,423.17 131.21,423.86 127.00,422.28 ZM 248.07 400.25 C238.17,395.20 237.60,381.90 247.06,376.83 C256.26,371.90 266.03,378.00 265.99,388.65 C265.97,393.69 264.24,396.92 260.09,399.72 C256.03,402.45 252.68,402.60 248.07,400.25 ZM 180.41 400.16 C175.44,397.04 173.00,393.24 173.01,388.62 C173.03,383.32 174.70,380.12 178.91,377.28 C187.91,371.22 200.13,378.57 198.70,389.20 C197.40,398.89 187.68,404.71 180.41,400.16 ZM 181.03 314.30 C175.90,316.94 167.60,323.21 161.41,329.41 C158.00,332.81 155.22,335.90 152.86,339.00 C157.35,332.70 162.80,327.03 169.26,321.90 C171.88,319.83 173.63,317.89 173.15,317.59 C172.67,317.30 169.68,312.65 166.50,307.28 C159.40,295.27 158.32,294.00 155.27,294.00 C151.73,294.00 147.00,288.87 147.00,285.03 C147.00,278.77 151.46,274.00 157.32,274.00 C163.09,274.00 167.95,281.58 165.99,287.52 C164.73,291.36 165.16,292.42 173.15,305.33 C175.82,309.64 178.00,313.63 178.00,314.20 C178.00,314.77 178.89,314.96 180.00,314.62 C180.30,314.52 180.66,314.41 181.03,314.30 ZM 269.73 322.01 C265.09,318.74 259.51,315.29 256.46,313.79 C256.88,313.91 257.34,314.09 257.87,314.28 L 258.00 314.33 C259.09,314.74 261.37,311.71 266.30,303.36 C272.72,292.49 273.06,291.59 272.43,287.41 C271.60,281.84 273.33,277.40 277.09,275.45 C281.20,273.33 284.45,273.67 287.92,276.59 C290.58,278.82 291.00,279.84 291.00,284.00 C291.00,288.16 290.58,289.18 287.92,291.41 C286.23,292.83 283.64,294.01 282.17,294.02 C279.83,294.03 278.71,295.40 273.00,305.27 C269.42,311.45 266.40,317.17 266.27,318.00 C266.17,318.65 267.60,320.27 269.73,322.01 ZM 205.04 430.29 C201.48,430.07 198.00,429.41 197.29,428.82 C195.29,427.17 195.70,422.23 197.93,421.04 C200.79,419.51 240.25,419.65 241.80,421.20 C243.37,422.77 243.34,427.48 241.75,428.75 C240.37,429.86 215.19,430.91 205.04,430.29 ZM 253.15 314.80 C251.82,317.27 249.70,322.03 247.53,327.47 C250.41,320.22 251.88,316.51 253.15,314.80 ZM 187.31 317.17 C189.56,323.42 192.13,329.68 194.41,334.57 C192.14,329.69 189.58,323.47 187.34,317.25 C186.81,315.77 186.14,314.46 185.58,313.70 C186.14,314.22 186.64,315.30 187.31,317.17 Z" fill="rgb(241,54,52)"/>
<path d="M 1120.25 469.51 C1116.72,467.98 1116.25,466.87 1118.36,465.12 C1119.38,464.27 1120.62,464.36 1123.33,465.49 C1128.65,467.72 1132.69,467.40 1135.55,464.55 C1137.87,462.22 1138.98,457.00 1137.15,457.00 C1136.69,457.00 1134.88,457.71 1133.15,458.58 C1127.84,461.22 1120.35,458.51 1117.45,452.90 C1115.59,449.30 1115.59,442.69 1117.46,439.09 C1119.52,435.10 1125.14,432.64 1130.35,433.46 C1132.63,433.81 1136.41,434.07 1138.75,434.04 L 1143.00 433.98 L 1143.00 447.60 C1143.00,459.64 1142.75,461.67 1140.87,465.01 C1139.70,467.09 1137.66,469.29 1136.33,469.90 C1132.98,471.42 1124.16,471.21 1120.25,469.51 ZM 1135.55 452.55 C1138.23,449.86 1138.78,445.34 1136.85,441.68 C1135.22,438.59 1134.07,438.03 1129.25,438.02 C1123.63,438.00 1121.00,440.56 1121.00,446.05 C1121.00,454.12 1129.96,458.13 1135.55,452.55 ZM 161.50 460.34 C151.19,457.15 143.80,449.86 140.62,439.74 C139.05,434.75 138.89,430.46 139.19,400.82 L 139.53 367.50 L 142.33 359.50 C146.84,346.63 151.43,339.39 161.41,329.41 C169.54,321.27 181.31,313.00 184.75,313.00 C185.34,313.00 186.50,314.91 187.34,317.25 C191.74,329.51 197.43,341.76 199.63,343.75 C202.00,345.90 202.87,346.00 219.42,346.00 C235.10,346.00 236.97,345.82 239.22,344.04 C240.89,342.73 243.63,337.27 247.50,327.54 C250.68,319.54 253.79,313.00 254.40,313.00 C255.98,313.01 266.59,319.50 272.85,324.29 C283.73,332.64 294.54,349.90 298.66,365.50 C300.26,371.60 300.50,376.59 300.50,404.50 L 300.50 436.50 L 297.61 442.75 C294.31,449.90 288.15,456.11 281.18,459.34 C276.58,461.46 275.55,461.50 221.50,461.70 C174.26,461.87 165.79,461.68 161.50,460.34 ZM 276.50 447.84 C280.70,445.52 284.62,441.16 286.45,436.78 C287.74,433.70 288.00,427.89 288.00,402.73 C288.00,372.42 288.00,372.39 285.52,367.45 C282.52,361.47 278.22,358.37 271.03,357.01 C263.53,355.58 173.44,355.71 166.67,357.16 C160.28,358.52 153.80,364.47 152.12,370.50 C150.68,375.69 150.62,430.08 152.04,435.22 C153.82,441.62 159.27,446.67 166.99,449.09 C168.37,449.52 192.90,449.79 221.50,449.69 C267.87,449.52 273.83,449.32 276.50,447.84 ZM 360.70 460.37 C360.32,459.98 360.00,451.87 360.00,442.33 L 360.00 425.00 L 362.46 425.00 C364.81,425.00 364.92,425.30 365.21,432.25 L 365.50 439.50 L 375.00 439.50 L 384.50 439.50 L 384.79 431.75 C385.07,424.24 385.16,424.00 387.56,424.00 L 390.05 424.00 L 389.77 442.25 C389.50,460.32 389.48,460.50 387.25,460.82 C385.08,461.13 385.00,460.87 385.00,453.07 L 385.00 445.00 L 375.04 445.00 L 365.08 445.00 L 364.79 452.74 C364.56,458.78 364.16,460.54 362.95,460.77 C362.10,460.94 361.09,460.75 360.70,460.37 ZM 399.70 460.37 C399.32,459.98 399.00,453.73 399.00,446.47 L 399.00 433.28 L 401.53 433.76 L 404.06 434.24 L 403.78 447.36 C403.55,458.26 403.24,460.53 401.95,460.77 C401.10,460.94 400.09,460.75 399.70,460.37 ZM 416.11 458.42 C414.30,456.12 414.00,454.38 414.00,446.37 C414.00,437.67 413.86,437.00 412.00,437.00 C410.90,437.00 410.00,436.38 410.00,435.62 C410.00,434.86 410.90,434.00 412.00,433.71 C413.46,433.33 414.00,432.35 414.00,430.09 C414.00,427.48 414.38,427.00 416.44,427.00 C418.45,427.00 418.93,427.56 419.19,430.25 C419.46,433.11 419.89,433.54 422.75,433.81 C427.36,434.26 427.14,437.00 422.50,437.00 L 419.00 437.00 L 419.00 445.88 C419.00,455.76 419.93,457.56 424.49,456.41 C426.89,455.81 427.14,455.99 426.84,458.12 C426.55,460.13 425.85,460.55 422.36,460.80 C418.87,461.06 417.90,460.68 416.11,458.42 ZM 436.45 458.55 C434.19,456.28 434.00,455.35 434.00,446.55 C434.00,437.67 433.86,437.00 432.00,437.00 C430.90,437.00 430.00,436.38 430.00,435.62 C430.00,434.86 430.90,434.00 432.00,433.71 C433.46,433.33 434.00,432.35 434.00,430.09 C434.00,427.48 434.38,427.00 436.44,427.00 C438.45,427.00 438.93,427.56 439.19,430.25 C439.46,433.12 439.89,433.54 442.81,433.82 C447.31,434.25 446.87,437.37 442.24,437.81 L 439.00 438.13 L 439.00 446.44 C439.00,455.60 440.11,457.69 444.38,456.62 C445.95,456.22 446.97,456.49 447.32,457.39 C448.89,461.48 440.31,462.40 436.45,458.55 ZM 456.50 459.79 C453.40,458.01 452.07,455.79 452.03,452.32 C451.98,447.51 455.77,445.00 463.08,445.00 C469.56,445.00 470.46,444.33 469.03,440.58 C468.15,438.27 467.51,438.00 462.96,438.00 C460.16,438.00 457.04,438.44 456.03,438.98 C453.47,440.35 452.20,437.06 454.62,435.29 C459.95,431.39 469.26,432.75 472.75,437.95 C474.83,441.05 475.04,442.35 474.78,450.94 C474.53,459.35 474.28,460.52 472.62,460.84 C471.59,461.03 470.41,460.66 470.00,460.00 C469.44,459.10 468.73,459.07 467.19,459.90 C464.54,461.32 459.06,461.26 456.50,459.79 ZM 465.93 456.54 C468.74,455.08 470.00,453.18 470.00,450.37 C470.00,449.21 468.71,448.97 463.75,449.20 C457.82,449.48 457.48,449.64 457.19,452.15 C456.98,454.01 457.57,455.29 459.17,456.40 C461.96,458.36 462.38,458.37 465.93,456.54 ZM 501.34 458.94 C498.05,456.83 495.00,450.83 495.00,446.45 C495.00,442.19 497.72,437.14 501.19,434.98 C504.51,432.91 509.38,432.73 514.75,434.50 C516.93,435.21 517.00,435.03 517.00,428.62 C517.00,422.21 517.08,422.00 519.52,422.00 L 522.04 422.00 L 521.77 441.24 C521.52,458.93 521.35,460.50 519.68,460.82 C518.50,461.05 517.67,460.44 517.32,459.10 C516.78,457.03 516.77,457.03 514.25,459.02 C511.00,461.58 505.40,461.55 501.34,458.94 ZM 514.08 454.08 C516.41,451.74 517.00,450.28 517.00,446.80 C517.00,440.26 514.95,438.00 509.02,438.00 C504.95,438.00 503.80,438.43 502.07,440.63 C497.33,446.67 502.03,456.56 509.83,456.94 C510.56,456.97 512.47,455.68 514.08,454.08 ZM 535.30 459.04 C530.44,456.08 528.56,452.50 528.65,446.38 C528.74,440.02 530.83,436.39 535.55,434.42 C539.87,432.61 543.17,432.62 547.57,434.46 C551.41,436.07 554.00,440.70 554.00,445.97 L 554.00 449.00 L 544.00 449.00 C533.16,449.00 531.95,449.74 536.25,453.75 C539.53,456.81 543.35,457.47 547.07,455.61 C548.82,454.74 550.64,454.28 551.12,454.58 C552.90,455.67 551.92,457.99 549.05,459.47 C545.01,461.57 539.14,461.38 535.30,459.04 ZM 549.00 443.33 C549.00,440.21 545.92,438.00 541.60,438.02 C539.34,438.02 537.00,438.36 536.40,438.77 C534.79,439.84 532.97,443.63 533.70,444.37 C534.05,444.72 537.63,445.00 541.67,445.00 C547.85,445.00 549.00,444.74 549.00,443.33 ZM 561.00 447.50 C561.00,434.80 561.12,434.00 562.94,434.00 C564.01,434.00 565.14,434.42 565.46,434.93 C565.79,435.47 567.18,435.27 568.77,434.44 C574.28,431.56 582.18,433.72 584.04,438.61 C584.57,440.00 585.00,445.63 585.00,451.13 C585.00,460.94 584.95,461.13 582.75,460.82 C580.63,460.52 580.48,459.97 580.17,451.03 C579.76,439.16 579.18,438.00 573.71,438.02 C571.40,438.02 568.97,438.37 568.31,438.79 C566.13,440.17 565.00,445.06 565.00,453.07 C565.00,460.33 564.83,461.00 563.00,461.00 C561.10,461.00 561.00,460.33 561.00,447.50 ZM 608.00 442.00 L 608.00 423.00 L 610.50 423.00 C612.91,423.00 613.00,423.23 613.00,429.53 L 613.00 436.05 L 616.16 434.42 C619.81,432.53 625.76,432.96 629.44,435.37 C630.74,436.22 632.58,438.94 633.52,441.42 C635.90,447.66 634.86,452.37 630.03,457.20 C625.67,461.57 620.93,462.25 615.84,459.25 C613.01,457.58 612.82,457.58 611.88,459.25 C611.34,460.21 610.25,461.00 609.45,461.00 C608.23,461.00 608.00,457.93 608.00,442.00 ZM 626.74 454.80 C627.43,454.23 628.50,452.06 629.12,449.98 C630.08,446.78 629.97,445.60 628.38,442.35 C626.60,438.70 626.23,438.48 621.34,438.20 C616.92,437.94 615.95,438.23 614.59,440.17 C611.19,445.03 613.31,453.94 618.36,456.03 C620.72,457.01 624.80,456.41 626.74,454.80 ZM 642.08 458.41 C638.20,455.15 637.96,450.95 641.45,447.45 C643.52,445.39 644.87,445.00 649.99,445.00 C656.59,445.00 658.04,443.82 656.04,440.08 C655.13,438.38 653.97,438.00 649.66,438.00 C646.77,438.00 643.93,438.47 643.36,439.04 C642.63,439.77 641.90,439.58 640.95,438.43 C639.77,437.01 639.83,436.59 641.42,435.43 C643.82,433.68 651.00,432.62 654.80,433.46 C660.42,434.69 661.46,437.02 661.84,449.10 C662.14,458.70 661.97,460.07 660.44,460.66 C659.34,461.08 658.23,460.66 657.37,459.49 C656.12,457.78 655.91,457.77 654.19,459.33 C651.37,461.88 645.69,461.45 642.08,458.41 ZM 655.00 455.00 C656.10,453.90 657.00,452.08 657.00,450.95 C657.00,449.08 656.48,448.93 650.75,449.20 C645.09,449.47 644.47,449.72 644.17,451.81 C643.99,453.07 644.39,454.76 645.05,455.56 C646.81,457.69 652.64,457.36 655.00,455.00 ZM 670.75 459.84 C668.98,459.19 668.00,458.11 668.00,456.80 C668.00,455.09 668.44,454.87 670.75,455.41 C678.75,457.30 681.47,457.24 683.39,455.12 C686.02,452.22 684.26,450.40 677.44,448.99 C673.69,448.21 671.42,447.08 670.02,445.30 C667.23,441.75 667.49,439.36 671.04,435.81 C673.88,432.96 674.47,432.79 680.06,433.20 C686.68,433.68 689.04,435.04 687.15,437.32 C686.23,438.43 685.18,438.50 682.06,437.67 C677.63,436.49 673.00,437.89 673.00,440.42 C673.00,442.32 676.85,445.00 679.57,445.00 C689.57,445.00 693.28,455.22 684.85,459.57 C681.72,461.20 674.82,461.33 670.75,459.84 ZM 699.71 459.61 C697.19,457.66 696.00,452.70 696.00,444.19 C696.00,437.32 695.88,436.90 694.00,437.50 C692.35,438.02 692.00,437.68 692.00,435.57 C692.00,433.67 692.52,433.00 694.00,433.00 C695.56,433.00 696.00,432.33 696.00,430.00 C696.00,427.47 696.39,427.00 698.50,427.00 C700.61,427.00 701.00,427.47 701.00,429.99 C701.00,432.71 701.37,433.03 705.04,433.62 C709.98,434.41 709.75,436.38 704.67,436.81 L 701.00 437.12 L 701.02 445.31 C701.02,449.81 701.46,454.17 701.98,455.00 C702.51,455.84 704.38,456.50 706.21,456.50 C708.83,456.50 709.50,456.91 709.50,458.50 C709.50,460.13 708.75,460.55 705.50,460.75 C703.26,460.88 700.71,460.38 699.71,459.61 ZM 716.92 458.08 C713.73,454.89 713.41,453.38 715.14,449.60 C716.57,446.45 718.08,445.79 725.50,445.08 C730.60,444.59 731.54,444.19 731.80,442.41 C731.96,441.26 731.38,439.73 730.51,439.00 C728.57,437.40 720.45,437.38 718.53,438.97 C717.44,439.88 716.91,439.69 716.05,438.10 C715.12,436.35 715.38,435.86 717.93,434.53 C721.29,432.80 727.63,432.53 731.39,433.96 C735.56,435.54 737.00,439.77 737.00,450.48 C737.00,458.11 736.69,460.18 735.49,460.64 C734.66,460.96 733.33,460.69 732.55,460.04 C731.52,459.18 730.58,459.15 729.13,459.93 C725.25,462.01 720.07,461.22 716.92,458.08 ZM 729.78 455.44 C731.06,454.54 732.00,452.84 732.00,451.40 C732.00,448.97 731.82,448.91 725.75,449.20 C720.09,449.47 719.47,449.72 719.17,451.81 C718.99,453.07 719.39,454.76 720.05,455.56 C721.63,457.46 726.99,457.40 729.78,455.44 ZM 760.00 447.07 C760.00,435.54 760.26,433.00 761.43,433.00 C762.21,433.00 763.48,433.62 764.24,434.38 C765.41,435.55 766.01,435.56 768.06,434.42 C771.88,432.31 774.19,432.62 773.82,435.19 C773.60,436.70 772.50,437.64 770.30,438.21 C768.54,438.66 766.74,439.59 766.30,440.27 C765.86,440.94 765.28,445.77 765.00,451.00 C764.53,459.91 764.36,460.52 762.25,460.82 C760.01,461.14 760.00,461.09 760.00,447.07 ZM 782.55 457.91 C770.52,447.35 780.09,429.29 795.13,434.14 C800.30,435.82 803.06,439.39 803.72,445.24 C805.14,457.79 791.62,465.88 782.55,457.91 ZM 796.08 454.08 C799.45,450.71 799.97,445.78 797.47,440.95 C796.10,438.29 795.46,438.00 791.05,438.00 C786.94,438.00 785.81,438.43 784.07,440.63 C780.42,445.28 781.96,453.16 787.02,455.72 C790.82,457.64 792.89,457.27 796.08,454.08 ZM 811.00 442.00 C811.00,423.67 811.07,423.00 813.00,423.00 C814.79,423.00 815.00,423.67 815.00,429.50 C815.00,433.08 815.34,435.98 815.75,435.96 C816.16,435.95 817.62,435.29 819.00,434.50 C824.30,431.47 832.77,433.72 835.43,438.87 C836.30,440.54 837.00,443.97 837.00,446.50 C837.00,457.71 827.95,464.13 818.80,459.40 C815.95,457.92 815.62,457.92 814.80,459.40 C814.30,460.28 813.25,461.00 812.45,461.00 C811.23,461.00 811.00,457.93 811.00,442.00 ZM 828.01 455.49 C832.38,453.24 833.86,447.44 831.38,442.35 C829.61,438.72 829.21,438.48 824.45,438.20 C817.91,437.82 815.67,439.98 815.67,446.67 C815.67,450.63 816.14,451.73 818.85,454.16 C822.48,457.40 823.92,457.61 828.01,455.49 ZM 848.50 459.01 C837.05,451.47 841.81,433.00 855.20,433.00 C865.63,433.01 872.03,443.81 867.39,453.58 C864.15,460.41 854.74,463.12 848.50,459.01 ZM 861.75 453.41 C864.68,450.13 864.76,444.24 861.93,440.63 C860.26,438.51 859.01,438.00 855.50,438.00 C850.13,438.00 847.00,441.28 847.00,446.91 C847.00,455.85 856.02,459.82 861.75,453.41 ZM 879.80 459.79 C877.09,457.74 876.00,453.47 876.00,444.93 C876.00,437.67 875.83,437.00 874.00,437.00 C872.89,437.00 872.00,436.33 872.00,435.50 C872.00,434.67 872.89,434.00 874.00,434.00 C875.30,434.00 876.00,433.33 876.00,432.08 C876.00,428.87 877.12,427.00 879.04,427.00 C880.38,427.00 880.96,427.88 881.19,430.25 C881.47,433.23 881.82,433.53 885.31,433.81 C890.18,434.21 889.71,436.38 884.67,436.81 L 881.00 437.12 L 881.00 445.41 C881.00,454.56 882.46,457.28 887.10,456.77 C888.92,456.56 889.50,456.98 889.50,458.50 C889.50,460.12 888.74,460.56 885.50,460.79 C883.30,460.96 880.73,460.51 879.80,459.79 ZM 899.76 459.43 C895.70,457.23 892.67,450.64 893.27,445.34 C894.39,435.32 902.03,431.08 912.75,434.51 C914.93,435.21 915.00,435.02 915.00,428.74 C915.00,422.48 915.09,422.25 917.50,422.25 L 920.00 422.25 L 920.00 441.16 C920.00,457.78 919.80,460.14 918.36,460.69 C917.36,461.07 916.20,460.63 915.42,459.56 C914.23,457.93 913.96,457.92 911.84,459.40 C909.00,461.39 903.39,461.40 899.76,459.43 ZM 912.08 454.08 C914.41,451.74 915.00,450.28 915.00,446.80 C915.00,440.26 912.95,438.00 907.02,438.00 C902.95,438.00 901.80,438.43 900.07,440.63 C896.45,445.24 897.98,452.76 903.11,455.60 C906.77,457.63 908.88,457.27 912.08,454.08 ZM 929.45 458.55 C927.01,456.11 926.14,450.84 927.77,448.40 C929.23,446.20 932.98,445.00 938.38,445.00 C944.61,445.00 945.38,444.41 943.67,440.94 C942.68,438.96 941.58,438.44 937.76,438.20 C935.18,438.03 932.20,438.36 931.13,438.93 C928.48,440.35 927.13,437.11 929.62,435.29 C934.35,431.83 943.75,432.60 946.99,436.71 C948.84,439.07 949.03,440.49 948.78,449.91 C948.54,459.05 948.26,460.52 946.75,460.81 C945.68,461.02 945.00,460.53 945.00,459.57 C945.00,457.64 944.08,457.62 941.56,459.53 C938.43,461.90 932.31,461.40 929.45,458.55 ZM 942.69 454.83 C943.96,453.63 945.00,451.81 945.00,450.78 C945.00,449.11 944.30,448.94 938.75,449.20 C933.09,449.47 932.47,449.72 932.17,451.81 C931.44,456.99 938.29,458.96 942.69,454.83 ZM 958.00 447.57 C958.00,434.86 958.12,434.00 959.92,434.00 C960.97,434.00 962.00,434.51 962.21,435.13 C962.47,435.92 963.56,435.76 965.74,434.63 C969.85,432.51 973.78,432.57 977.49,434.83 C980.40,436.59 980.58,436.59 983.79,434.70 C988.30,432.04 994.63,432.87 997.78,436.53 C999.90,438.99 1000.04,439.97 999.78,449.83 C999.54,459.04 999.26,460.52 997.75,460.81 C996.19,461.11 996.00,460.18 995.99,452.32 C995.97,441.06 994.83,438.60 989.42,438.20 C983.26,437.75 982.14,439.63 981.79,451.03 C981.52,459.99 981.38,460.52 979.25,460.82 C977.06,461.13 977.00,460.89 976.99,452.32 C976.97,441.06 975.83,438.60 970.42,438.20 C964.26,437.75 963.14,439.63 962.79,451.03 C962.52,459.99 962.38,460.52 960.25,460.82 C958.01,461.14 958.00,461.07 958.00,447.57 ZM 1009.00 447.50 C1009.00,434.86 1009.12,434.00 1010.92,434.00 C1011.97,434.00 1012.99,434.47 1013.18,435.04 C1013.40,435.69 1014.77,435.46 1016.85,434.42 C1020.66,432.52 1026.26,433.02 1029.00,435.50 C1030.60,436.95 1031.05,436.90 1034.42,434.92 C1039.30,432.03 1045.51,432.73 1048.78,436.53 C1050.90,438.99 1051.04,439.97 1050.78,449.84 C1050.53,459.31 1050.30,460.50 1048.71,460.50 C1047.14,460.50 1046.89,459.39 1046.68,451.50 C1046.39,440.24 1045.28,438.00 1040.04,438.00 C1034.17,438.00 1033.00,439.79 1032.99,448.82 C1032.97,458.25 1032.30,461.00 1030.00,461.00 C1028.46,461.00 1028.18,459.75 1027.84,451.12 C1027.58,444.85 1026.95,440.64 1026.10,439.62 C1024.67,437.89 1018.46,437.42 1016.18,438.87 C1014.33,440.04 1013.05,446.28 1013.02,454.25 C1013.00,460.33 1012.80,461.00 1011.00,461.00 C1009.10,461.00 1009.00,460.33 1009.00,447.50 ZM 1059.75 459.43 C1054.27,456.46 1057.02,454.31 1064.00,456.10 C1070.17,457.68 1074.32,456.27 1073.82,452.76 C1073.56,450.97 1072.47,450.31 1068.23,449.37 C1060.26,447.61 1058.00,445.75 1058.00,440.96 C1058.00,437.55 1058.47,436.68 1061.25,434.92 C1063.88,433.27 1065.62,432.97 1070.37,433.35 C1076.95,433.89 1078.99,435.11 1077.11,437.37 C1076.18,438.48 1075.13,438.61 1072.70,437.92 C1068.09,436.59 1066.51,436.77 1063.89,438.89 C1060.58,441.57 1062.64,443.63 1070.14,445.11 C1079.24,446.90 1081.76,452.39 1076.08,458.08 C1073.56,460.59 1072.41,460.99 1067.83,460.96 C1064.90,460.94 1061.26,460.25 1059.75,459.43 ZM 1089.78 459.44 C1085.67,457.21 1085.00,455.05 1085.00,444.07 C1085.00,434.29 1085.07,434.00 1087.25,434.00 C1089.41,434.00 1089.50,434.36 1089.60,443.17 C1089.70,451.91 1089.83,452.46 1092.49,454.75 C1095.72,457.53 1099.42,457.19 1102.25,453.85 C1103.65,452.19 1104.00,449.87 1104.00,442.28 C1104.00,434.03 1104.21,432.87 1105.58,433.39 C1106.45,433.73 1107.59,434.00 1108.11,434.00 C1108.67,434.00 1108.94,439.37 1108.78,447.24 C1108.53,458.92 1108.29,460.51 1106.75,460.81 C1105.68,461.02 1105.00,460.53 1105.00,459.57 C1105.00,457.61 1103.94,457.58 1101.44,459.47 C1098.95,461.35 1093.27,461.34 1089.78,459.44 ZM 1152.63 458.93 C1150.63,457.35 1150.00,455.97 1150.02,453.18 C1150.04,446.99 1152.82,445.00 1161.43,445.00 C1166.63,445.00 1167.00,444.84 1167.00,442.62 C1167.00,439.05 1164.71,437.75 1159.28,438.22 C1156.65,438.44 1153.85,438.83 1153.06,439.07 C1152.26,439.31 1151.45,438.72 1151.23,437.73 C1150.66,435.13 1157.21,432.65 1162.94,433.30 C1166.19,433.66 1168.08,434.55 1169.75,436.50 C1171.90,439.00 1172.05,439.93 1171.78,449.83 C1171.54,459.04 1171.26,460.52 1169.75,460.81 C1168.68,461.02 1168.00,460.53 1168.00,459.57 C1168.00,457.64 1167.08,457.62 1164.56,459.53 C1161.73,461.67 1155.74,461.37 1152.63,458.93 ZM 1165.55 454.55 C1169.72,450.37 1168.85,449.00 1162.04,449.00 C1157.16,449.00 1155.88,449.35 1155.04,450.93 C1153.70,453.44 1153.71,453.57 1155.57,455.43 C1157.95,457.80 1162.71,457.38 1165.55,454.55 ZM 1181.00 447.57 C1181.00,434.67 1181.10,434.00 1183.00,434.00 C1184.10,434.00 1185.00,434.67 1185.00,435.49 C1185.00,436.70 1185.60,436.61 1188.25,434.99 C1192.67,432.29 1195.23,432.37 1194.82,435.19 C1194.60,436.70 1193.50,437.64 1191.30,438.21 C1189.54,438.66 1187.74,439.59 1187.30,440.27 C1186.86,440.94 1186.28,445.77 1186.00,451.00 C1185.53,459.91 1185.36,460.52 1183.25,460.82 C1181.01,461.14 1181.00,461.07 1181.00,447.57 ZM 1206.97 460.18 C1198.93,456.62 1195.55,446.54 1199.96,439.30 C1205.61,430.04 1219.36,431.43 1222.92,441.63 C1225.29,448.44 1224.54,449.00 1213.03,449.00 C1207.51,449.00 1203.00,449.39 1203.00,449.87 C1203.00,450.34 1203.91,451.88 1205.01,453.29 C1207.50,456.45 1212.16,457.59 1216.05,455.98 C1217.65,455.32 1219.76,455.08 1220.73,455.46 C1222.30,456.07 1222.19,456.42 1219.69,458.57 C1216.88,461.01 1210.62,461.80 1206.97,460.18 ZM 1218.38 444.19 C1218.65,443.75 1218.33,442.29 1217.67,440.94 C1215.97,437.52 1208.10,436.90 1205.05,439.95 C1201.10,443.90 1202.27,445.00 1210.44,445.00 C1214.53,445.00 1218.11,444.64 1218.38,444.19 ZM 1230.70 460.37 C1230.32,459.98 1230.00,453.89 1230.00,446.83 L 1230.00 434.00 L 1232.50 434.00 C1233.88,434.00 1235.00,434.43 1235.00,434.95 C1235.00,435.47 1236.56,435.25 1238.47,434.45 C1242.90,432.60 1246.35,432.61 1250.01,434.51 C1253.89,436.51 1255.21,441.32 1254.81,452.00 C1254.52,459.94 1254.35,460.52 1252.25,460.82 C1250.05,461.13 1250.00,460.91 1250.00,451.79 C1250.00,440.11 1248.86,438.00 1242.57,438.00 C1236.48,438.00 1235.59,439.51 1235.00,450.89 C1234.60,458.49 1234.18,460.54 1232.95,460.77 C1232.10,460.94 1231.09,460.75 1230.70,460.37 ZM 399.67 427.33 C399.30,426.97 399.00,425.62 399.00,424.33 C399.00,422.50 399.55,422.00 401.53,422.00 C402.92,422.00 404.32,422.68 404.64,423.51 C405.68,426.21 401.64,429.31 399.67,427.33 ZM 644.04 426.54 C642.54,424.74 643.50,423.00 646.00,423.00 C647.04,423.00 648.17,423.47 648.53,424.04 C649.19,425.12 647.35,428.00 646.00,428.00 C645.58,428.00 644.70,427.34 644.04,426.54 ZM 654.04 426.54 C652.54,424.74 653.50,423.00 656.00,423.00 C657.04,423.00 658.17,423.47 658.53,424.04 C659.19,425.12 657.35,428.00 656.00,428.00 C655.58,428.00 654.70,427.34 654.04,426.54 ZM 471.00 397.19 C451.64,392.13 438.97,376.04 439.01,356.57 C439.05,339.58 447.67,325.84 462.82,318.66 C469.21,315.64 470.04,315.50 482.00,315.50 C494.13,315.50 494.72,315.60 501.75,318.90 C532.47,333.29 532.67,378.58 502.09,393.94 C491.77,399.13 482.23,400.12 471.00,397.19 ZM 490.78 380.45 C502.05,375.75 508.18,362.27 505.03,349.14 C502.56,338.83 495.11,332.38 484.40,331.28 C466.08,329.39 453.72,346.03 459.08,365.35 C460.43,370.21 467.27,377.74 472.50,380.13 C477.43,382.38 485.80,382.53 490.78,380.45 ZM 652.10 397.42 C643.86,395.20 637.44,391.23 631.03,384.37 C622.76,375.53 620.56,369.56 620.52,355.95 C620.50,345.75 620.63,345.14 624.23,337.84 C628.73,328.74 634.52,323.07 643.82,318.66 C650.22,315.63 651.02,315.50 663.00,315.52 C679.43,315.55 684.64,317.45 694.09,326.91 C703.28,336.10 705.45,341.73 705.48,356.50 C705.50,366.82 705.30,367.92 702.31,374.24 C693.52,392.79 671.94,402.75 652.10,397.42 ZM 673.00 379.95 C690.78,370.96 691.81,342.82 674.69,333.76 C671.46,332.05 668.79,331.54 663.00,331.52 C656.57,331.50 654.82,331.90 650.74,334.30 C641.96,339.46 637.32,351.82 639.99,362.96 C643.67,378.32 659.80,386.62 673.00,379.95 ZM 794.73 397.91 C789.57,396.70 784.25,393.83 779.56,389.76 L 775.61 386.33 L 780.45 380.16 C783.12,376.77 785.44,374.00 785.63,374.00 C785.81,374.00 788.29,375.76 791.13,377.91 C798.38,383.40 804.75,384.15 808.54,379.95 C812.15,375.97 812.91,371.02 812.96,351.28 L 813.00 332.06 L 799.25 331.78 L 785.50 331.50 L 785.21 323.75 L 784.92 316.00 L 808.52 316.00 L 832.13 316.00 L 831.93 342.25 C831.72,371.01 830.98,379.16 828.07,384.86 C822.48,395.82 808.72,401.21 794.73,397.91 ZM 1134.06 397.44 C1127.83,396.09 1119.50,392.52 1115.62,389.54 C1113.80,388.14 1113.83,387.89 1116.59,381.55 C1118.16,377.95 1119.75,375.00 1120.12,375.00 C1120.49,375.00 1124.33,376.69 1128.65,378.75 C1136.07,382.30 1137.03,382.50 1146.33,382.50 L 1156.16 382.50 L 1159.08 379.23 C1160.69,377.44 1162.00,375.28 1162.00,374.44 C1162.00,371.65 1157.29,368.14 1151.35,366.51 C1135.49,362.14 1128.83,359.73 1124.37,356.76 C1109.85,347.05 1112.72,326.69 1129.78,318.31 C1135.23,315.63 1136.16,315.50 1149.50,315.51 C1161.68,315.52 1164.21,315.82 1169.00,317.77 C1177.70,321.31 1177.42,320.75 1174.42,328.83 C1172.96,332.78 1171.35,336.00 1170.84,336.00 C1170.34,336.00 1168.20,335.12 1166.11,334.05 C1164.01,332.99 1159.27,331.58 1155.57,330.94 C1141.62,328.51 1131.99,333.08 1134.48,340.94 C1135.42,343.90 1140.81,346.30 1153.50,349.41 C1159.55,350.89 1166.74,353.32 1169.47,354.80 C1180.90,361.01 1184.06,374.71 1176.63,385.82 C1169.23,396.86 1152.48,401.44 1134.06,397.44 ZM 1087.11 395.44 C1081.66,390.85 1081.06,383.21 1085.77,378.50 C1088.82,375.45 1091.89,374.56 1096.68,375.34 C1106.31,376.90 1108.78,388.80 1100.86,395.47 C1096.76,398.91 1091.22,398.90 1087.11,395.44 ZM 360.00 356.54 L 360.00 316.00 L 381.82 316.00 C405.98,316.00 410.99,316.83 418.70,322.14 C426.96,327.82 431.45,339.93 429.14,350.26 C427.60,357.16 423.26,364.08 418.15,367.77 L 414.21 370.63 L 422.53 383.22 C427.10,390.15 430.58,396.09 430.26,396.41 C429.93,396.73 425.50,397.00 420.42,397.00 L 411.17 397.00 L 403.61 385.50 L 396.04 374.00 L 387.55 374.00 L 379.07 374.00 L 378.78 385.25 L 378.50 396.50 L 369.25 396.79 L 360.00 397.08 L 360.00 356.54 ZM 405.23 355.49 C412.29,350.69 412.63,340.23 405.91,334.57 C402.99,332.12 402.27,332.00 390.92,332.00 L 379.00 332.00 L 379.00 345.00 L 379.00 358.00 L 390.27 358.00 C400.65,358.00 401.83,357.80 405.23,355.49 ZM 538.00 356.43 L 538.00 315.85 L 564.75 316.18 L 591.50 316.50 L 596.75 319.26 C603.38,322.76 606.93,327.92 607.68,335.15 C608.32,341.43 606.78,345.90 602.13,351.20 L 599.02 354.75 L 603.10 357.45 C613.92,364.61 614.01,383.87 603.26,391.32 C595.85,396.45 592.07,397.00 563.84,397.00 L 538.00 397.00 L 538.00 356.43 ZM 586.01 381.38 C590.74,379.49 592.01,377.55 591.97,372.32 C591.90,364.42 588.54,363.00 569.93,363.00 L 556.00 363.00 L 556.00 372.33 C556.00,377.47 556.30,381.97 556.67,382.33 C557.03,382.70 562.87,383.00 569.65,383.00 C578.66,383.00 583.04,382.57 586.01,381.38 ZM 586.08 345.23 C589.50,341.41 589.87,337.29 587.09,333.86 C585.27,331.61 584.53,331.49 570.59,331.18 L 556.00 330.85 L 556.00 339.26 C556.00,343.88 556.34,348.01 556.75,348.42 C557.16,348.84 563.27,349.03 570.33,348.84 L 583.17 348.50 L 586.08 345.23 ZM 735.00 364.29 L 735.00 331.50 L 722.75 331.50 L 710.50 331.50 L 710.21 323.75 L 709.92 316.00 L 744.96 316.00 L 780.00 316.00 L 780.00 322.42 C780.00,332.44 780.62,332.00 766.41,332.00 L 754.03 332.00 L 753.76 364.25 L 753.50 396.50 L 744.25 396.79 L 735.00 397.08 L 735.00 364.29 ZM 837.56 394.75 C838.25,392.49 843.21,380.99 856.02,351.93 C859.80,343.37 863.81,334.03 864.94,331.16 C866.06,328.30 868.13,323.70 869.53,320.95 L 872.07 315.93 L 882.09 316.22 L 892.10 316.50 L 907.15 350.50 C926.69,394.65 926.98,395.36 926.08,396.29 C925.66,396.73 921.34,396.95 916.47,396.79 L 907.62 396.50 L 904.06 388.25 L 900.50 380.00 L 881.52 380.25 L 862.54 380.50 L 859.13 388.75 L 855.72 397.00 L 846.29 397.00 C836.98,397.00 836.87,396.97 837.56,394.75 ZM 893.40 364.16 C893.87,363.40 883.13,336.80 881.83,335.50 C881.42,335.08 873.57,352.73 869.27,363.75 C868.90,364.71 871.60,365.00 880.83,365.00 C887.46,365.00 893.12,364.62 893.40,364.16 ZM 935.00 356.54 L 935.00 316.00 L 944.48 316.00 L 953.95 316.00 L 954.23 334.11 L 954.50 352.22 L 970.85 334.11 L 987.19 316.00 L 997.77 316.00 L 1008.35 316.00 L 1006.36 318.25 C1005.27,319.49 998.78,326.80 991.94,334.50 C985.10,342.20 978.90,349.27 978.17,350.20 C977.00,351.70 978.85,354.47 993.82,373.70 C1003.16,385.69 1010.59,395.84 1010.34,396.25 C1010.09,396.66 1005.24,397.00 999.58,397.00 L 989.27 397.00 L 979.89 384.89 C974.72,378.22 969.38,371.26 968.00,369.41 C966.62,367.56 964.98,366.04 964.34,366.03 C963.71,366.01 961.13,368.28 958.63,371.07 L 954.07 376.14 L 953.78 386.32 L 953.50 396.50 L 944.25 396.79 L 935.00 397.08 L 935.00 356.54 ZM 1039.00 364.23 L 1039.00 331.38 L 1026.25 331.44 L 1013.50 331.50 L 1013.21 323.75 L 1012.92 316.00 L 1048.00 316.00 L 1083.08 316.00 L 1082.79 323.75 L 1082.50 331.50 L 1070.12 331.50 L 1057.73 331.50 L 1057.62 364.00 L 1057.50 396.50 L 1048.25 396.79 L 1039.00 397.08 L 1039.00 364.23 ZM 1193.00 356.51 L 1193.00 316.00 L 1223.25 316.00 L 1253.50 316.00 L 1253.17 323.50 L 1252.84 331.00 L 1241.67 331.17 C1235.53,331.27 1226.22,331.44 1221.00,331.55 L 1211.50 331.75 L 1211.21 339.88 L 1210.92 348.00 L 1230.00 348.00 L 1249.09 348.00 L 1248.79 355.25 L 1248.50 362.50 L 1230.00 363.00 L 1211.50 363.50 L 1211.50 372.50 L 1211.50 381.50 L 1233.29 381.77 L 1255.09 382.04 L 1254.79 389.27 L 1254.50 396.50 L 1223.75 396.76 L 1193.00 397.03 L 1193.00 356.51 Z" fill="rgb(252,252,251)"/>
</g>
</svg>